<?xml version="1.0" standalone="no"?>
<!DOCTYPE svg PUBLIC "-//W3C//DTD SVG 20010904//EN"
 "http://www.w3.org/TR/2001/REC-SVG-20010904/DTD/svg10.dtd">
<svg version="1.0" xmlns="http://www.w3.org/2000/svg"
 width="320.000000pt" height="320.000000pt" viewBox="0 0 320.000000 320.000000"
 preserveAspectRatio="xMidYMid meet">

<g transform="translate(0.000000,320.000000) scale(0.100000,-0.100000)"
fill="#000000" stroke="none">
<path d="M1563 3150 c-31 -13 -35 -74 -8 -114 14 -19 10 -22 -83 -67 -55 -26
-121 -68 -149 -93 l-51 -46 -49 10 c-65 14 -154 17 -235 7 l-68 -9 0 32 c0 52
-26 90 -61 90 -40 0 -83 -42 -73 -73 9 -29 34 -57 61 -68 22 -8 21 -10 -27
-74 -57 -75 -80 -117 -104 -192 -17 -51 -18 -52 -82 -73 -60 -20 -203 -105
-218 -129 -10 -15 -36 -14 -36 2 0 18 -39 53 -67 61 -31 10 -73 -33 -73 -72 0
-37 35 -62 86 -62 l37 0 -7 -37 c-16 -89 -17 -171 -4 -239 l14 -71 -29 -34
c-53 -63 -91 -123 -122 -196 -28 -63 -34 -70 -47 -57 -22 22 -79 28 -103 11
-27 -21 -27 -93 0 -113 25 -18 66 -18 91 1 10 8 22 15 25 15 3 0 16 -26 29
-57 27 -68 73 -142 122 -197 l34 -39 -14 -66 c-13 -64 -12 -172 4 -248 6 -33
6 -33 -33 -33 -79 0 -111 -63 -58 -115 34 -34 52 -31 97 16 l38 40 43 -34 c55
-45 139 -91 205 -112 42 -14 53 -23 59 -44 13 -55 62 -148 111 -214 50 -66 51
-68 29 -76 -27 -11 -52 -39 -61 -68 -10 -31 33 -73 73 -73 35 0 61 38 61 90
l0 32 68 -9 c81 -10 170 -7 235 7 l49 10 51 -46 c28 -25 94 -67 149 -93 97
-47 97 -47 82 -70 -19 -26 -21 -88 -5 -104 15 -15 87 -15 102 0 16 16 14 78
-5 104 -15 23 -15 23 82 70 55 26 121 68 149 93 l51 46 49 -10 c65 -14 154
-17 236 -7 l67 9 0 -32 c0 -52 26 -90 61 -90 40 0 83 42 73 73 -9 29 -34 57
-61 68 -22 8 -21 10 29 76 49 66 98 159 111 214 6 21 17 30 59 44 66 21 150
67 205 112 l43 34 38 -40 c45 -47 63 -50 97 -16 53 52 21 115 -58 115 -39 0
-39 0 -33 33 16 76 17 184 4 248 l-14 66 34 39 c49 55 95 129 122 197 13 31
26 57 29 57 3 0 15 -7 25 -15 25 -19 66 -19 91 -1 27 20 27 92 0 113 -24 17
-81 11 -103 -11 -13 -13 -19 -6 -47 57 -31 73 -69 133 -122 196 l-29 34 14 71
c13 68 12 150 -4 239 l-7 37 37 0 c51 0 86 25 86 62 0 39 -42 82 -73 72 -28
-8 -67 -43 -67 -61 0 -21 -18 -15 -58 16 -60 48 -147 97 -206 115 -53 17 -55
19 -72 69 -24 75 -47 117 -104 192 -48 64 -49 66 -27 74 27 11 52 39 61 68 10
31 -33 73 -73 73 -35 0 -61 -38 -61 -90 l0 -32 -67 9 c-82 10 -171 7 -236 -7
l-49 -10 -51 46 c-28 25 -94 67 -148 92 l-96 47 19 36 c38 74 -13 130 -89 99z
m62 -50 c7 -21 -10 -60 -25 -60 -15 0 -32 39 -25 60 4 11 15 20 25 20 10 0 21
-9 25 -20z m-743 -204 c6 -14 8 -32 4 -42 -6 -15 -9 -15 -29 -2 -12 9 -23 27
-25 42 -3 21 1 26 18 26 12 0 25 -10 32 -24z m1486 -2 c-2 -15 -13 -33 -25
-42 -20 -13 -23 -13 -29 2 -10 26 12 66 36 66 17 0 21 -5 18 -26z m-845 -251
c-7 -2 -19 -2 -25 0 -7 3 -2 5 12 5 14 0 19 -2 13 -5z m180 0 c-7 -2 -19 -2
-25 0 -7 3 -2 5 12 5 14 0 19 -2 13 -5z m-533 -87 c0 -2 -7 -7 -16 -10 -8 -3
-12 -2 -9 4 6 10 25 14 25 6z m885 -6 c3 -6 -1 -7 -9 -4 -18 7 -21 14 -7 14 6
0 13 -4 16 -10z m-1045 -84 c0 -3 -4 -8 -10 -11 -5 -3 -10 -1 -10 4 0 6 5 11
10 11 6 0 10 -2 10 -4z m1200 -6 c0 -5 -2 -10 -4 -10 -3 0 -8 5 -11 10 -3 6
-1 10 4 10 6 0 11 -4 11 -10z m-1866 -112 c14 -20 14 -23 0 -31 -20 -11 -64 7
-64 26 0 34 42 37 64 5z m2574 0 c4 -22 -39 -44 -62 -31 -15 8 -15 11 0 31 18
27 57 26 62 0z m-2265 -303 c-3 -9 -8 -14 -10 -11 -3 3 -2 9 2 15 9 16 15 13
8 -4z m1273 -50 c34 -17 81 -19 120 -5 15 6 28 9 29 8 1 -2 -5 -19 -13 -38
-12 -27 -16 -31 -20 -17 -3 14 -10 17 -25 13 -12 -3 -37 -6 -54 -6 -25 0 -33
-5 -33 -17 -1 -29 -40 24 -40 53 0 28 0 28 36 9z m-632 -45 c-21 -20 -525
-232 -533 -224 -12 12 41 38 272 134 136 57 253 110 259 118 9 10 13 11 16 2
3 -7 -4 -20 -14 -30z m277 0 c28 -16 24 -61 -11 -106 -17 -21 -40 -54 -51 -71
-19 -29 -39 -43 -39 -27 0 13 25 52 63 97 23 28 36 52 31 57 -5 5 -29 2 -54
-6 -61 -20 -279 -128 -310 -154 -24 -20 -24 -21 -6 -32 47 -27 254 -171 286
-198 19 -16 52 -36 72 -44 l37 -16 16 55 c8 30 20 55 26 55 6 0 9 -6 6 -14 -3
-8 -11 -33 -17 -55 -6 -22 -15 -43 -20 -46 -6 -3 -10 -15 -10 -26 0 -13 -7
-19 -22 -19 -29 0 -69 25 -162 100 -41 33 -76 60 -79 60 -3 0 -3 -17 0 -39 5
-38 3 -41 -106 -159 -62 -66 -119 -123 -127 -126 -35 -13 -63 -5 -89 26 -24
29 -27 38 -22 88 3 30 8 65 12 77 13 41 -35 14 -121 -69 -65 -63 -87 -78 -112
-78 -60 0 -81 82 -43 166 19 42 53 77 36 38 -30 -72 -37 -106 -27 -130 17 -35
36 -30 100 29 80 73 123 104 155 112 17 5 27 14 27 25 0 22 15 34 63 49 20 7
37 16 37 20 0 3 -16 37 -36 74 -21 39 -34 77 -32 92 l3 26 35 -31 c23 -20 31
-33 23 -36 -9 -4 -6 -17 12 -48 28 -48 30 -70 10 -106 -12 -23 -12 -27 11 -45
17 -14 22 -26 18 -41 -5 -20 -11 -21 -64 -17 -66 6 -72 0 -84 -72 -13 -75 25
-121 76 -94 13 6 69 59 126 117 l103 104 -23 34 c-12 18 -46 52 -76 75 -54 44
-69 71 -58 114 13 50 110 114 275 181 118 49 115 48 142 34z m260 -51 c22 -45
26 -60 15 -56 -21 8 -21 3 9 -188 25 -153 26 -227 4 -241 -5 -3 -9 12 -9 33 0
21 -16 135 -34 254 -30 186 -36 259 -20 259 2 0 18 -28 35 -61z m409 18 c0
-28 -73 -97 -102 -97 -22 0 -21 1 7 19 37 22 72 61 57 61 -16 0 -15 33 0 48
15 15 38 -3 38 -31z m-560 -27 c20 -42 22 -53 10 -60 -11 -7 -10 -31 9 -147
25 -160 22 -214 -18 -254 -15 -14 -33 -28 -41 -31 -13 -4 -13 -7 -1 -22 40
-48 116 -58 206 -27 l55 19 6 -50 c15 -115 67 -104 163 36 18 25 55 63 83 85
51 39 52 40 49 88 -3 64 30 118 74 118 26 0 31 -5 39 -37 9 -34 2 -63 -32
-140 -2 -5 12 -8 32 -8 59 0 61 14 25 237 -34 221 -32 202 -30 226 2 31 20 18
46 -33 29 -57 33 -79 10 -60 -19 15 -19 20 5 -125 37 -223 23 -295 -59 -295
-20 0 -47 7 -59 16 -20 14 -24 14 -50 -5 -36 -26 -93 -87 -122 -131 -57 -86
-97 -112 -145 -94 -21 8 -45 56 -45 90 0 21 -3 25 -17 19 -10 -5 -45 -14 -78
-21 -96 -21 -162 4 -191 73 -17 41 -17 43 1 43 11 0 14 7 10 23 -5 19 -1 24
26 32 53 16 55 29 35 172 -10 70 -24 160 -32 200 -14 67 -11 128 5 119 4 -3
18 -28 31 -56z m345 0 c26 -52 32 -75 15 -65 -14 9 -13 -9 16 -190 26 -157 27
-235 4 -235 -6 0 -10 13 -10 30 0 29 -40 305 -60 413 -10 51 -7 97 6 97 2 0
15 -22 29 -50z m-1157 17 c2 -11 -1 -15 -11 -11 -10 4 -16 -5 -21 -30 -7 -35
-26 -51 -26 -21 0 9 -11 20 -25 25 -14 5 -25 16 -25 25 0 23 36 18 48 -7 10
-23 10 -22 22 10 13 34 32 38 38 9z m1612 -94 c0 -7 -6 -10 -13 -7 -11 4 -9
-27 9 -148 24 -158 30 -254 16 -276 -5 -8 -13 26 -21 85 -6 54 -23 171 -38
259 -31 189 -27 223 17 149 16 -28 30 -55 30 -62z m-206 -71 c15 -18 15 -20
-1 -35 -15 -13 -21 -13 -35 -3 -21 15 -23 27 -6 44 16 16 22 15 42 -6z m-836
-10 c2 -7 -3 -12 -11 -12 -9 0 -17 -14 -21 -35 -8 -39 -21 -46 -29 -15 -3 11
-12 20 -20 20 -17 0 -28 22 -18 38 8 13 24 4 39 -23 10 -19 12 -18 23 13 11
32 29 38 37 14z m760 -4 c7 -7 8 -17 1 -30 -12 -22 -19 -22 -44 -4 -16 12 -17
16 -6 30 16 19 33 20 49 4z m-560 -39 c4 -32 -38 -82 -82 -99 -36 -13 -46 -6
-14 10 12 7 33 21 45 32 17 16 20 24 11 38 -6 9 -8 25 -5 34 10 26 42 15 45
-15z m-688 -58 c0 -23 -36 -51 -65 -51 -17 0 -15 3 10 20 l30 20 -35 0 c-33 1
-34 1 -16 15 30 23 76 20 76 -4z m1033 -68 c-9 -3 -4 -17 14 -44 36 -55 28
-101 -28 -151 -47 -43 -58 -46 -60 -18 -1 11 -2 25 -3 32 -1 6 9 12 22 13 12
1 33 12 47 25 24 23 24 24 8 49 -46 69 -70 123 -65 148 l5 25 36 -37 c22 -23
31 -39 24 -42z m-1839 51 c13 -5 14 -9 5 -20 -13 -16 -55 -19 -64 -4 -15 24
21 39 59 24z m603 -29 c-11 -37 -2 -59 14 -35 8 12 9 9 7 -10 -2 -19 -9 -25
-28 -25 -21 0 -25 4 -23 29 2 25 27 76 37 76 2 0 -1 -16 -7 -35z m2368 15 c0
-19 -41 -25 -61 -9 -12 10 -12 14 -2 21 20 13 63 5 63 -12z m-1305 -116 c0 -6
-7 -17 -15 -24 -28 -23 -60 21 -34 47 13 13 49 -4 49 -23z m-329 -163 c-17
-30 -13 -43 9 -36 17 5 19 3 11 -17 -12 -33 -45 -30 -49 4 -3 28 28 101 35 81
2 -7 0 -21 -6 -32z m827 11 c2 -7 -4 -12 -12 -12 -10 0 -19 -12 -23 -30 -7
-38 -20 -47 -28 -20 -3 11 -13 20 -20 20 -19 0 -28 17 -20 38 6 15 10 13 29
-12 l23 -28 11 32 c11 31 31 37 40 12z m-908 -27 c0 -22 -22 -34 -42 -24 -20
11 -23 30 -7 46 13 13 49 -4 49 -22z m-86 -28 c-8 -21 -27 -22 -43 -3 -10 11
-10 20 -1 37 12 21 12 21 31 2 12 -12 17 -26 13 -36z m-968 -402 c8 -20 -13
-45 -38 -45 -27 0 -35 30 -13 46 25 18 44 18 51 -1z m2559 1 c22 -16 14 -46
-13 -46 -25 0 -46 25 -38 45 7 19 26 19 51 1z m-1900 -136 c3 -5 1 -10 -4 -10
-6 0 -11 5 -11 10 0 6 2 10 4 10 3 0 8 -4 11 -10z m1205 0 c0 -5 -5 -10 -11
-10 -5 0 -7 5 -4 10 3 6 8 10 11 10 2 0 4 -4 4 -10z m-1045 -98 c-3 -3 -11 0
-18 7 -9 10 -8 11 6 5 10 -3 15 -9 12 -12z m890 8 c-3 -5 -12 -10 -18 -10 -7
0 -6 4 3 10 19 12 23 12 15 0z m-528 -96 c-3 -3 -12 -4 -19 -1 -8 3 -5 6 6 6
11 1 17 -2 13 -5z m170 0 c-3 -3 -12 -4 -19 -1 -8 3 -5 6 6 6 11 1 17 -2 13
-5z m-813 -241 c-13 -38 -54 -45 -54 -9 0 14 9 31 22 40 30 21 45 6 32 -31z
m1484 -7 c3 -21 -1 -26 -18 -26 -24 0 -46 40 -36 66 6 15 9 15 29 2 12 -9 23
-27 25 -42z m-748 -166 c15 -27 3 -60 -20 -60 -10 0 -21 9 -25 20 -7 21 10 60
25 60 5 0 14 -9 20 -20z"/>
<path d="M2235 1577 c-13 -10 -16 -21 -11 -40 8 -34 26 -34 56 -3 38 42 2 77
-45 43z"/>
</g>
</svg>
