<?xml version="1.0" standalone="no"?>
<!DOCTYPE svg PUBLIC "-//W3C//DTD SVG 20010904//EN"
 "http://www.w3.org/TR/2001/REC-SVG-20010904/DTD/svg10.dtd">
<svg version="1.0" xmlns="http://www.w3.org/2000/svg"
 width="1200" height="630" viewBox="0 0 1200 630"
 preserveAspectRatio="xMidYMid meet">

<!-- Background -->
<rect width="1200" height="630" fill="#f8f9fa"/>

<!-- Main Pattern (scaled and centered) -->
<g transform="translate(600,315) scale(1.5)">
    <g transform="translate(0.000000,320.000000) scale(0.100000,-0.100000)"
    fill="#1a472a" stroke="none">
        <path d="M1563 3150 c-31 -13 -35 -74 -8 -114 14 -19 10 -22 -83 -67 -55 -26
        -121 -68 -149 -93 l-51 -46 -49 10 c-65 14 -154 17 -235 7 l-68 -9 0 32 c0 52
        -26 90 -61 90 -40 0 -83 -42 -73 -73 9 -29 34 -57 61 -68 22 -8 21 -10 -27
        -74 -57 -75 -80 -117 -104 -192 -17 -51 -18 -52 -82 -73 -60 -20 -203 -105
        -218 -129 -10 -15 -36 -14 -36 2 0 18 -39 53 -67 61 -31 10 -73 -33 -73 -72 0
        -37 35 -62 86 -62 l37 0 -7 -37 c-16 -89 -17 -171 -4 -239 l14 -71 -29 -34
        c-53 -63 -91 -123 -122 -196 -28 -63 -34 -70 -47 -57 -22 22 -79 28 -103 11
        -27 -21 -27 -93 0 -113 25 -18 66 -18 91 1 10 8 22 15 25 15 3 0 16 -26 29
        -57 27 -68 73 -142 122 -197 l34 -39 -14 -66 c-13 -64 -12 -172 4 -248 6 -33
        6 -33 -33 -33 -79 0 -111 -63 -58 -115 34 -34 52 -31 97 16 l38 40 43 -34 c55
        -45 139 -91 205 -112 42 -14 53 -23 59 -44 13 -55 62 -148 111 -214 50 -66 51
        -68 29 -76 -27 -11 -52 -39 -61 -68 -10 -31 33 -73 73 -73 35 0 61 38 61 90
        l0 32 68 -9 c81 -10 170 -7 235 7 l49 10 51 -46 c28 -25 94 -67 149 -93 97
        -47 97 -47 82 -70 -19 -26 -21 -88 -5 -104 15 -15 87 -15 102 0 16 16 14 78
        -5 104 -15 23 -15 23 82 70 55 26 121 68 149 93 l51 46 49 -10 c65 -14 154
        -17 236 -7 l67 9 0 -32 c0 -52 26 -90 61 -90 40 0 83 42 73 73 -9 29 -34 57
        -61 68 -22 8 -21 10 29 76 49 66 98 159 111 214 6 21 17 30 59 44 66 21 150
        67 205 112 l43 34 38 -40 c45 -47 63 -50 97 -16 53 52 21 115 -58 115 -39 0
        -39 0 -33 33 16 76 17 184 4 248 l-14 66 34 39 c49 55 95 129 122 197 13 31
        26 57 29 57 3 0 15 -7 25 -15 25 -19 66 -19 91 -1 27 20 27 92 0 113 -24 17
        -81 11 -103 -11 -13 -13 -19 -6 -47 57 -31 73 -69 133 -122 196 l-29 34 14 71
        c13 68 12 150 -4 239 l-7 37 37 0 c51 0 86 25 86 62 0 39 -42 82 -73 72 -28
        -8 -67 -43 -67 -61 0 -21 -18 -15 -58 16 -60 48 -147 97 -206 115 -53 17 -55
        19 -72 69 -24 75 -47 117 -104 192 -48 64 -49 66 -27 74 27 11 52 39 61 68 10
        31 -33 73 -73 73 -35 0 -61 -38 -61 -90 l0 -32 -67 9 c-82 10 -171 7 -236 -7
        l-49 -10 -51 46 c-28 25 -94 67 -148 92 l-96 47 19 36 c38 74 -13 130 -89 99z"/>
    </g>
</g>

<!-- Text Elements -->
<g transform="translate(600,500)">
    <!-- Arabic Text -->
    <text x="0" y="0" 
          font-family="Scheherazade, serif" 
          font-size="72" 
          fill="#1a472a" 
          text-anchor="middle">
        القرآن الكريم
    </text>
    
    <!-- English Text -->
    <text x="0" y="80" 
          font-family="Arial, sans-serif" 
          font-size="48" 
          fill="#1a472a" 
          text-anchor="middle">
        Al-Furqan | The Noble Quran
    </text>
</g>

</svg>
